<svg xmlns="http://www.w3.org/2000/svg" viewBox="0 0 1024 1024">
  <path fill="#1A5C4F" d="M128.978577,499.913055 C122.904121,482.148621 118.190468,464.401978 117.849091,445.970978 C117.206261,411.265045 128.561554,380.327362 148.796524,352.388794 C166.036713,328.585052 188.819778,311.061401 213.379883,295.714264 C257.427521,268.189667 305.270630,249.851135 355.643585,237.657578 C387.397003,229.971146 419.540375,224.809158 452.037201,221.940170 C485.093384,219.021805 518.215088,218.878403 551.367981,220.575607 C595.390259,222.829239 638.692139,229.551834 681.335876,240.629242 C733.007568,254.051788 781.682068,274.296204 825.938599,304.484619 C852.127808,322.348938 874.991882,343.490356 890.059326,371.904297 C910.563171,410.570404 913.382019,450.623993 899.760437,492.215637 C882.636475,544.501404 858.888306,593.424011 827.341309,638.526855 C824.670959,642.344666 822.217346,646.385864 819.090820,649.799133 C810.414612,659.271057 799.513428,662.418762 787.313782,658.613037 C775.470886,654.918701 768.603088,646.324890 766.683472,634.015137 C765.003357,623.241272 765.742981,612.423584 766.302307,601.604919 C767.206909,584.107727 767.437744,566.590637 762.475647,549.573059 C753.609680,519.166931 732.483215,501.521790 702.171936,495.743561 C671.965698,489.985321 645.365967,498.734772 623.954895,521.117126 C610.905334,534.758606 603.742554,551.423645 601.285278,570.154541 C596.651428,605.475891 611.414124,633.313599 635.089172,657.614319 C650.406189,673.336182 667.943665,686.305969 686.650208,697.698730 C696.928284,703.958252 706.224548,710.888550 710.052551,723.163208 C716.050842,742.397217 710.587036,759.446594 693.176147,771.040771 C651.434326,798.837402 605.872375,817.020142 556.114014,824.449402 C531.916443,828.062256 507.643829,828.509033 483.394073,826.146240 C445.763214,822.479797 410.049133,811.700745 375.922852,795.501648 C361.298462,788.559814 347.179657,780.729309 333.783447,771.657959 C322.824463,764.237061 315.157104,754.527161 314.323242,740.696594 C313.426056,725.815369 317.540527,712.824097 330.221741,704.021545 C344.311890,694.240967 359.089996,685.441406 372.389893,674.537476 C389.778717,660.281250 405.240692,644.415161 415.699554,624.118835 C436.608490,583.543518 424.475861,533.744751 387.252716,508.348297 C349.657837,482.698242 296.999420,492.480438 272.343262,529.776611 C264.305084,541.935730 261.826660,555.789429 260.212494,569.984924 C258.146484,588.154358 260.846436,606.263855 260.298798,624.401794 C260.157440,629.083069 259.898468,633.737122 258.560852,638.228149 C255.237488,649.386230 247.875443,656.668884 236.550369,659.179810 C224.279053,661.900513 213.536331,658.465149 205.974609,648.249390 C198.151688,637.680908 190.727737,626.773804 183.773697,615.613281 C161.137253,579.284241 142.995392,540.784241 128.978577,499.913055 z"/>
</svg>
